<svg xmlns="http://www.w3.org/2000/svg" width="29.022" height="33.143" viewBox="0 0 29.022 33.143">
  <g id="Group_41953" data-name="Group 41953" transform="translate(-1142.978 -40)">
    <g id="Notification" transform="translate(18.02 7.167)" opacity="0.8">
      <path id="Fill-1" d="M24.521,14.537a5.854,5.854,0,0,1-1.6-4.293V9.6a8.358,8.358,0,0,0-1.8-5.645A10.612,10.612,0,0,0,12.878,0h-.133A10.657,10.657,0,0,0,4.638,3.787,8.475,8.475,0,0,0,2.7,9.6v.644a5.724,5.724,0,0,1-1.6,4.293A5.069,5.069,0,0,0,0,18.019,5.439,5.439,0,0,0,1.3,21.6a6.83,6.83,0,0,0,4.371,2.13,62.767,62.767,0,0,0,7.139.372c2.4,0,4.769-.17,7.139-.372A6.83,6.83,0,0,0,24.32,21.6a5.446,5.446,0,0,0,1.3-3.584A5.069,5.069,0,0,0,24.521,14.537Z" transform="translate(1124.958 35.833)" fill="#4e22d0"/>
      <path id="Fill-4" d="M7.439.121a38.579,38.579,0,0,0-6.1,0C.7.269,0,.616,0,1.374A2.336,2.336,0,0,0,1.049,3.143v0a5.479,5.479,0,0,0,2.584,1.1,5.782,5.782,0,0,0,1.519,0,5.48,5.48,0,0,0,2.582-1.1v0A2.336,2.336,0,0,0,8.779,1.374C8.779.616,8.083.269,7.439.121Z" transform="translate(1133.358 61.679)" fill="#e0e0e0"/>
    </g>
    <g id="Group_41976" data-name="Group 41976">
      <g id="Ellipse_133" data-name="Ellipse 133" transform="translate(1156 40)" fill="#fe0808" stroke="#fff" stroke-width="1">
        <circle cx="8" cy="8" r="8" stroke="none"/>
        <circle cx="8" cy="8" r="7.5" fill="none"/>
      </g>
      <text id="_1" data-name="1" transform="translate(1161 52)" fill="#fff" font-size="12" font-family="Rubik-Medium, Rubik" font-weight="500"><tspan x="0" y="0">1</tspan></text>
    </g>
  </g>
</svg>
