<svg xmlns="http://www.w3.org/2000/svg" width="30" height="32" viewBox="0 0 30 32">
  <g id="Group_41978" data-name="Group 41978" transform="translate(-1058 -41)">
    <g id="shopping-cart" transform="translate(1058 43)">
      <path id="Vector" d="M0,0H30V30H0Z" fill="none" opacity="0"/>
      <path id="Vector-2" data-name="Vector" d="M4.375,2.188A2.188,2.188,0,1,1,2.188,0,2.187,2.187,0,0,1,4.375,2.188Z" transform="translate(18.125 23.75)" fill="#4e22d0"/>
      <path id="Vector-3" data-name="Vector" d="M4.375,2.188A2.188,2.188,0,1,1,2.188,0,2.187,2.187,0,0,1,4.375,2.188Z" transform="translate(8.125 23.75)" fill="#4e22d0"/>
      <path id="Vector-4" data-name="Vector" d="M4.487,3.363l-.25,3.062a.991.991,0,0,0,1,1.075H24.375a1,1,0,0,0,1-.925,3.7,3.7,0,0,0-3.738-4.012H6.3A3.408,3.408,0,0,0,5.537,1.05,3.275,3.275,0,0,0,3.15,0H.938A.944.944,0,0,0,0,.938a.944.944,0,0,0,.938.938H3.113A1.372,1.372,0,0,1,4.487,3.363Z" transform="translate(1.563 1.563)" fill="#e0e0e0"/>
      <path id="Vector-5" data-name="Vector" d="M20.638,0H1.463a1,1,0,0,0-1,.912L.013,6.35A3.66,3.66,0,0,0,3.65,10.313h13.9A3.747,3.747,0,0,0,21.213,6.9l.413-5.837A.978.978,0,0,0,20.638,0Z" transform="translate(5 10.938)" fill="#4e22d0"/>
    </g>
    <g id="Group_41977" data-name="Group 41977" transform="translate(-84 1)">
      <g id="Ellipse_133" data-name="Ellipse 133" transform="translate(1156 40)" fill="#fe0808" stroke="#fff" stroke-width="1">
        <circle cx="8" cy="8" r="8" stroke="none"/>
        <circle cx="8" cy="8" r="7.5" fill="none"/>
      </g>
      <text id="_1" data-name="1" transform="translate(1161 52)" fill="#fff" font-size="12" font-family="Rubik-Medium, Rubik" font-weight="500"><tspan x="0" y="0">1</tspan></text>
    </g>
  </g>
</svg>
