<svg id="Fav" xmlns="http://www.w3.org/2000/svg" width="30" height="30" viewBox="0 0 30 30">
  <g id="heart">
    <path id="Vector" d="M25,6.987a13.348,13.348,0,0,1-.65,4.138H.65A13.348,13.348,0,0,1,0,6.987a6.94,6.94,0,0,1,12.5-4.2A6.94,6.94,0,0,1,25,6.987Z" transform="translate(2.5 3.875)" fill="#4e22d0"/>
    <path id="Vector-2" data-name="Vector" d="M23.7,0c-1.975,6.25-8.062,9.987-11.075,11.012a2.726,2.726,0,0,1-1.55,0C8.063,9.987,1.975,6.25,0,0Z" transform="translate(3.15 15)" fill="#e0e0e0"/>
    <path id="Vector-3" data-name="Vector" d="M0,0H30V30H0Z" fill="none" opacity="0"/>
  </g>
</svg>
