<svg xmlns="http://www.w3.org/2000/svg" width="31.222" height="28.101" viewBox="0 0 31.222 28.101">
  <g id="Message" transform="translate(-1075.833 -37.25)" opacity="0.8">
    <path id="Fill-1" d="M31.222,11.151a7.878,7.878,0,0,1-7.852,7.9H7.884A7.878,7.878,0,0,1,0,11.182v-.016S.009,4.257.022.782A.778.778,0,0,1,1.283.17C4.992,3.113,11.625,8.479,11.708,8.549a6.35,6.35,0,0,0,3.95,1.389,6.265,6.265,0,0,0,3.95-1.407c.083-.055,6.568-5.259,10.333-8.25A.78.78,0,0,1,31.206.89C31.222,4.338,31.222,11.151,31.222,11.151Z" transform="translate(1075.833 46.3)" fill="#e0e0e0"/>
    <path id="Fill-4" d="M29.619,4.174A7.86,7.86,0,0,0,22.678,0H7.1A7.86,7.86,0,0,0,.158,4.174,1.348,1.348,0,0,0,.5,5.857l11.591,9.271a4.412,4.412,0,0,0,2.779.982H14.9a4.412,4.412,0,0,0,2.779-.982L29.274,5.857A1.348,1.348,0,0,0,29.619,4.174Z" transform="translate(1076.619 37.25)" fill="#4e22d0"/>
  </g>
</svg>
