<svg id="Group_41761" data-name="Group 41761" xmlns="http://www.w3.org/2000/svg" width="31.47" height="35.822" viewBox="0 0 31.47 35.822">
  <path id="Path_10292" data-name="Path 10292" d="M14.748,10.3H6.759a.992.992,0,1,1,0-1.985h7.989a.992.992,0,0,1,0,1.985" transform="translate(-1.871 -2.518)" fill="#ed771b"/>
  <path id="Path_10293" data-name="Path 10293" d="M11.865,15H3.876a.992.992,0,1,1,0-1.985h7.988a.992.992,0,1,1,0,1.985" transform="translate(-0.936 -4.044)" fill="#ed771b"/>
  <path id="Path_10294" data-name="Path 10294" d="M8.981,19.7H.992a.992.992,0,1,1,0-1.985H8.981a.992.992,0,1,1,0,1.985" transform="translate(0 -5.569)" fill="#ed771b"/>
  <path id="Path_10295" data-name="Path 10295" d="M11.865,24.4H3.876a.992.992,0,1,1,0-1.985h7.988a.992.992,0,1,1,0,1.985" transform="translate(-0.936 -7.094)" fill="#ed771b"/>
  <path id="Path_10296" data-name="Path 10296" d="M14.748,29.1H6.759a.992.992,0,1,1,0-1.985h7.989a.992.992,0,0,1,0,1.985" transform="translate(-1.871 -8.62)" fill="#ed771b"/>
  <path id="Path_10297" data-name="Path 10297" d="M34.128,15.39a12.636,12.636,0,0,1-5.559,7.946,12.976,12.976,0,0,1-3.226,1.473l-.516.151-1.42-2.226a3.731,3.731,0,0,1-.505-2.882,3.956,3.956,0,0,1,1.8-2.527,5.51,5.51,0,1,0-7.57-1.7l8.355,13.1A3.875,3.875,0,0,1,24.3,34.069l-2.753,1.753-.4-.592L11.094,19.466A12.654,12.654,0,1,1,34.128,15.39" transform="translate(-2.954 0)" fill="#4e22d0"/>
</svg>
