<svg id="Resturant" xmlns="http://www.w3.org/2000/svg" width="30" height="30" viewBox="0 0 30 30">
  <g id="shop">
    <path id="Vector" d="M23.425.35V7.837a6.252,6.252,0,0,1-6.25,6.25H6.25A6.252,6.252,0,0,1,0,7.837V.438A5.1,5.1,0,0,0,3.762,2.05,5.116,5.116,0,0,0,7.8,0a4.693,4.693,0,0,0,3.912,2.05A4.668,4.668,0,0,0,15.6.05a5.124,5.124,0,0,0,4,2A4.988,4.988,0,0,0,23.425.35Z" transform="translate(3.288 13.887)" fill="#e0e0e0" opacity="0.84"/>
    <path id="Vector-2" data-name="Vector" d="M11.063,8.775,10.7,5.313C10.175,1.538,8.463,0,4.8,0H0L.925,9.375a4.489,4.489,0,0,1,.025.5,4.772,4.772,0,0,0,.575,1.788A5.182,5.182,0,0,0,6,14.375a4.978,4.978,0,0,0,4.1-2.038A5.09,5.09,0,0,0,11.063,8.775Z" transform="translate(16.888 1.563)" fill="#e0e0e0" opacity="0.6"/>
    <path id="Vector-3" data-name="Vector" d="M6.274,0C2.6,0,.9,1.538.362,5.35L.024,8.787a5.138,5.138,0,0,0,1.025,3.65,5.012,5.012,0,0,0,4.037,1.938,5.174,5.174,0,0,0,4.462-2.687,4.653,4.653,0,0,0,.6-1.887L11.124.012H6.274Z" transform="translate(1.963 1.563)" fill="#e0e0e0" opacity="0.6"/>
    <path id="Vector-4" data-name="Vector" d="M8.446,0H.946L.021,9.2a4.86,4.86,0,0,0,.362,2.375,4.671,4.671,0,0,0,4.325,2.8,4.658,4.658,0,0,0,4.338-2.787,4.974,4.974,0,0,0,.375-1.8V9.55Z" transform="translate(10.291 1.563)" fill="#4e22d0"/>
    <path id="Vector-5" data-name="Vector" d="M2.788.044A3.119,3.119,0,0,0,0,3.157V7.194H7.188v-3.6C7.2.982,5.663-.256,2.788.044Z" transform="translate(11.4 20.781)" fill="#4e22d0"/>
    <path id="Vector-6" data-name="Vector" d="M0,0H30V30H0Z" fill="none" opacity="0"/>
  </g>
</svg>
